<?xml version="1.0" standalone="no"?>
<!DOCTYPE svg PUBLIC "-//W3C//DTD SVG 20010904//EN"
 "http://www.w3.org/TR/2001/REC-SVG-20010904/DTD/svg10.dtd">
<svg version="1.0" xmlns="http://www.w3.org/2000/svg"
 width="1024.000000pt" height="1024.000000pt" viewBox="0 0 1024.000000 1024.000000"
 preserveAspectRatio="xMidYMid meet">
<metadata>
Created by potrace 1.14, written by Peter Selinger 2001-2017
</metadata>
<g transform="translate(0.000000,1024.000000) scale(0.100000,-0.100000)"
fill="#000000" stroke="none">
<path d="M2938 9325 c-2 -1 -23 -5 -48 -8 -178 -21 -412 -241 -448 -422 -9
-40 -8 -180 1 -230 28 -156 212 -325 370 -339 19 -2 38 -5 43 -8 21 -11 149 1
213 21 137 42 245 125 326 251 72 111 107 260 83 349 -5 18 -11 42 -13 53 -15
78 -137 220 -231 271 -62 33 -154 57 -233 62 -33 2 -61 2 -63 0z"/>
<path d="M7100 9281 c-63 -16 -140 -47 -150 -61 -3 -4 -13 -11 -22 -16 -10 -5
-39 -30 -64 -54 -61 -58 -111 -163 -117 -245 -6 -77 11 -218 30 -248 4 -6 8
-18 9 -25 8 -53 118 -183 201 -238 104 -69 169 -86 323 -88 134 -1 136 -1 202
32 40 20 93 58 132 96 127 123 168 282 116 456 -8 25 -14 47 -14 50 -3 22 -86
145 -124 184 -42 44 -142 117 -167 123 -5 2 -36 12 -68 23 -76 27 -202 32
-287 11z"/>
<path d="M3918 8444 c-2 -1 -30 -5 -63 -9 -33 -4 -89 -13 -125 -22 -36 -8 -76
-17 -90 -19 -68 -13 -346 -113 -376 -135 -6 -5 -37 -23 -70 -40 -32 -17 -61
-35 -64 -39 -3 -4 -15 -10 -27 -14 -13 -4 -23 -12 -23 -17 0 -5 -6 -9 -12 -9
-7 0 -40 -22 -74 -48 -158 -122 -267 -227 -338 -322 -22 -30 -43 -57 -46 -60
-17 -17 -53 -77 -88 -146 -37 -73 -106 -254 -98 -254 2 0 -1 -21 -8 -47 -7
-27 -12 -69 -12 -96 1 -26 -3 -47 -7 -47 -5 0 -5 -5 -1 -11 3 -6 8 -54 9 -107
3 -80 10 -116 40 -207 20 -60 38 -116 41 -123 2 -9 24 -2 74 23 38 19 70 32
70 28 0 -5 4 -3 8 3 6 10 165 69 214 80 10 2 27 6 39 9 11 2 28 6 37 9 72 21
290 28 375 13 214 -38 491 -177 690 -346 12 -11 33 -28 45 -38 l24 -19 -64
-54 c-34 -30 -66 -60 -71 -67 -4 -6 -14 -18 -22 -26 -8 -8 -11 -17 -8 -21 4
-3 1 -6 -6 -6 -16 0 -51 -36 -94 -98 -19 -28 -42 -59 -51 -68 -75 -74 -183
-306 -234 -499 -30 -113 -39 -164 -46 -263 -3 -30 -6 -56 -9 -58 -6 -7 -163
59 -274 114 -140 71 -271 162 -362 251 -75 74 -171 197 -171 220 0 6 -3 11 -8
11 -4 0 -14 15 -21 33 -8 17 -27 60 -43 94 -55 123 -84 287 -92 523 -1 43 -2
45 -31 44 -30 0 -107 -11 -148 -20 -12 -3 -27 -6 -34 -8 -7 -1 -16 -5 -19 -9
-4 -4 -16 -7 -26 -7 -10 0 -48 -14 -85 -31 -234 -109 -436 -312 -553 -556 -35
-72 -86 -209 -95 -253 -2 -8 -4 -15 -5 -15 -3 0 -13 -43 -35 -145 -5 -26 -15
-92 -21 -145 -9 -80 -3 -334 10 -410 2 -16 8 -54 11 -82 3 -29 10 -67 15 -84
5 -18 7 -35 5 -40 -3 -4 -1 -10 5 -14 5 -3 10 -14 10 -23 0 -20 51 -180 75
-237 39 -92 58 -130 100 -200 24 -41 48 -80 54 -87 6 -7 31 -38 55 -68 123
-156 312 -287 506 -350 75 -24 104 -31 190 -43 8 -2 20 -6 27 -10 15 -9 34 53
22 69 -5 6 -6 13 -3 16 3 3 7 37 9 74 7 104 28 241 49 319 16 60 29 102 34
110 4 6 7 12 7 15 2 34 84 177 149 259 83 106 221 223 351 297 11 6 40 23 65
38 25 14 56 30 70 36 13 6 63 30 110 53 47 23 90 42 97 43 6 1 11 -12 11 -30
0 -17 3 -44 6 -61 2 -16 8 -50 11 -75 11 -76 103 -339 152 -431 65 -124 160
-247 284 -369 58 -58 113 -110 120 -115 69 -51 153 -107 196 -131 29 -16 53
-32 53 -35 0 -5 -104 -78 -148 -104 -9 -6 -45 -29 -80 -53 -35 -23 -65 -42
-68 -42 -2 0 -28 -15 -57 -34 -46 -29 -91 -52 -212 -107 -42 -19 -206 -70
-247 -77 -54 -9 -308 -9 -368 0 -25 4 -60 12 -78 17 -18 5 -36 11 -40 12 -16
4 -68 24 -167 63 -34 14 -170 84 -231 120 l-41 24 -37 -98 c-19 -54 -43 -128
-51 -165 -19 -80 -26 -260 -13 -342 4 -32 10 -72 13 -90 9 -61 65 -219 107
-303 38 -75 112 -196 128 -210 3 -3 19 -23 35 -45 78 -105 260 -278 375 -355
12 -8 28 -21 36 -27 7 -7 17 -13 22 -13 6 0 12 -4 14 -8 2 -5 26 -22 53 -37
183 -103 187 -105 370 -172 39 -14 75 -26 80 -28 6 -1 17 -4 25 -7 19 -7 127
-30 160 -34 244 -30 398 -21 565 33 192 62 361 181 491 347 l31 39 -71 48
c-39 26 -80 56 -91 66 -11 10 -38 31 -60 47 -62 45 -178 167 -223 234 -100
146 -166 319 -189 494 -12 89 -4 394 12 483 15 85 35 194 40 224 3 19 8 38 11
43 6 9 52 0 69 -12 12 -10 160 -56 224 -71 113 -27 232 -38 366 -34 161 4 211
10 320 35 28 6 57 13 65 15 46 10 211 70 262 95 62 31 83 37 73 21 -3 -5 6
-63 19 -128 14 -65 27 -136 30 -158 4 -22 9 -53 12 -68 9 -46 15 -133 16 -267
2 -235 -22 -362 -105 -540 -50 -107 -193 -280 -315 -378 -23 -19 -51 -43 -64
-54 -12 -10 -49 -35 -80 -54 -32 -20 -58 -42 -58 -50 0 -24 128 -145 210 -198
101 -67 235 -132 310 -151 8 -3 49 -13 90 -24 65 -17 99 -20 250 -16 96 2 195
6 220 10 25 3 59 7 75 9 57 8 201 48 285 81 150 58 425 218 515 300 113 103
236 231 280 290 51 70 154 239 186 305 20 42 67 178 74 217 2 15 8 39 11 53
10 36 10 279 0 320 -4 19 -9 42 -11 50 -2 8 -4 15 -5 15 -1 0 -3 11 -6 24 -2
13 -27 76 -54 140 -37 87 -53 115 -65 113 -9 -2 -47 -22 -83 -44 -138 -85
-318 -154 -477 -183 -88 -17 -245 -22 -315 -11 -91 14 -110 18 -175 38 -38 11
-83 26 -100 34 -131 57 -173 78 -265 134 -88 53 -316 206 -343 230 -4 3 16 22
45 40 200 128 378 313 504 525 41 70 92 170 100 200 2 6 17 47 33 92 17 45 37
120 45 165 9 46 18 97 21 113 3 17 8 62 11 100 3 39 8 72 10 74 5 6 204 -84
303 -136 168 -89 380 -241 461 -331 53 -58 118 -152 162 -232 22 -40 62 -136
63 -150 0 -3 4 -11 8 -17 5 -7 6 -13 2 -13 -3 0 -1 -8 4 -18 5 -10 12 -38 16
-62 3 -25 8 -52 10 -60 9 -30 16 -137 17 -267 1 -115 3 -133 17 -135 83 -7
232 18 341 59 205 76 385 225 515 423 58 89 131 229 150 290 1 3 5 12 8 20 13
31 65 218 72 256 4 21 8 50 11 64 35 198 35 454 -1 655 -25 141 -95 351 -155
460 -39 72 -54 99 -60 105 -3 3 -18 24 -33 46 -15 23 -40 55 -55 72 -15 17
-36 41 -48 54 -32 36 -94 90 -149 130 -94 68 -315 168 -372 168 -12 0 -24 4
-27 8 -4 7 -20 8 -57 3 -3 -1 -7 -26 -8 -56 -1 -30 -4 -65 -6 -77 -3 -13 -7
-45 -11 -72 -17 -151 -120 -415 -212 -546 -119 -167 -354 -329 -655 -450 -56
-23 -111 -45 -122 -49 -18 -8 -43 -17 -100 -36 -11 -3 -21 -6 -23 -5 -1 0 -16
-7 -32 -15 -37 -19 -37 -19 -44 98 -3 48 -8 92 -12 98 -7 11 -15 55 -15 82 0
9 -4 15 -9 12 -4 -3 -6 5 -3 16 6 22 -55 219 -70 230 -5 3 -9 9 -8 12 1 17
-95 227 -109 237 -3 3 -22 28 -41 55 -18 28 -36 52 -39 55 -3 3 -17 21 -31 40
-28 37 -60 73 -140 156 l-49 52 41 33 c22 19 51 42 62 53 189 162 453 300 661
345 123 26 339 19 481 -15 96 -24 203 -63 297 -110 97 -48 93 -49 126 36 72
187 82 342 38 555 -25 116 -102 291 -184 415 -84 127 -302 337 -452 437 -76
51 -300 167 -300 156 0 -3 -6 -1 -12 5 -39 31 -332 114 -488 138 -70 10 -291
7 -367 -5 -37 -6 -77 -12 -88 -14 -11 -1 -26 -6 -32 -10 -7 -5 -13 -6 -13 -3
0 7 -88 -20 -158 -48 -84 -33 -178 -86 -244 -137 -68 -53 -225 -215 -231 -240
-4 -14 9 -26 62 -55 54 -31 161 -106 241 -171 8 -6 38 -30 67 -52 44 -35 80
-73 169 -184 8 -9 14 -19 14 -22 0 -2 16 -30 35 -62 19 -32 42 -80 51 -108 9
-27 20 -54 24 -60 4 -5 10 -23 13 -40 3 -16 10 -52 16 -78 6 -26 13 -71 17
-100 8 -64 11 -388 4 -479 l-5 -67 -49 30 c-100 62 -269 142 -336 159 -25 6
-61 18 -80 27 -198 91 -722 63 -987 -53 -17 -8 -35 -14 -40 -14 -5 0 -35 -14
-67 -30 -31 -17 -61 -28 -65 -26 -8 6 -6 344 3 416 21 165 78 332 156 464 95
158 280 321 495 435 44 24 81 44 83 46 14 13 -126 172 -219 250 -74 61 -274
175 -309 175 -6 0 -18 4 -28 9 -22 12 -118 39 -162 45 -19 3 -46 8 -60 12 -25
5 -317 13 -322 8z"/>
<path d="M725 5682 c-3 -3 -17 -7 -32 -8 -15 -2 -60 -19 -99 -39 -140 -69
-258 -218 -290 -366 -10 -47 -11 -145 -3 -209 22 -157 86 -266 212 -362 130
-99 322 -112 479 -32 54 27 174 141 206 194 30 50 60 130 68 181 10 63 11 199
1 199 -5 0 -6 4 -3 8 3 5 -1 31 -8 58 -56 214 -249 373 -459 379 -37 1 -69 -1
-72 -3z"/>
<path d="M9320 5638 c-106 -33 -189 -99 -259 -207 -148 -230 -120 -539 65
-704 158 -140 328 -168 517 -83 26 11 47 24 47 28 0 5 6 8 13 8 6 0 29 16 50
36 115 109 187 271 188 421 1 212 -142 433 -323 498 -75 27 -215 28 -298 3z"/>
<path d="M7293 1955 c-29 -7 -53 -11 -53 -9 0 1 -28 -11 -62 -28 -146 -70
-258 -196 -311 -349 -45 -130 -23 -304 54 -416 96 -138 231 -205 402 -199 102
4 107 5 189 36 111 41 250 157 295 244 9 17 19 33 22 36 3 3 15 30 26 60 24
65 29 240 9 306 -34 114 -118 219 -216 270 -103 53 -252 74 -355 49z"/>
<path d="M2680 1886 c-126 -38 -186 -82 -274 -199 -58 -79 -85 -226 -63 -351
14 -76 84 -190 162 -264 71 -68 179 -132 250 -149 33 -7 231 -9 255 -2 87 27
180 72 188 91 2 4 8 8 14 8 21 0 109 105 138 164 64 131 61 255 -11 401 -40
82 -89 141 -170 207 -122 100 -334 141 -489 94z"/>
</g>
</svg>
